<?xml version="1.0" encoding="iso-8859-1"?>
<!-- Generator: Adobe Illustrator 24.1.2, SVG Export Plug-In . SVG Version: 6.00 Build 0)  -->
<svg version="1.1" xmlns="http://www.w3.org/2000/svg" xmlns:xlink="http://www.w3.org/1999/xlink" x="0px" y="0px"
	 viewBox="0 0 48 48" style="enable-background:new 0 0 48 48;" xml:space="preserve">
<g id="Layer_10" style="display:none;">
</g>
<g id="bubbles">
</g>
<g id="dotted">
</g>
<g id="clipart">
</g>
<g id="two_x5F_tone">
</g>
<g id="grdnt">
</g>
<g id="cute">
</g>
<g id="ios_x5F_out">
	<path style="fill:none;stroke:#fff;stroke-width:3;stroke-linejoin:round;stroke-miterlimit:10;" d="M45.957,21.535
		c-0.122-0.096-1.259-0.951-3.656-0.951c-0.633,0.003-1.265,0.057-1.889,0.162c-0.464-3.167-3.093-4.516-3.211-4.585l-0.644-0.37
		l-0.423,0.608c-0.53,0.817-0.917,1.718-1.145,2.664c-0.429,1.808-0.168,3.31,0.754,4.762c-1.114,0.618-3.013,0.661-3.375,0.674H2.5
		c-0.552,0-1,0.448-1,1v1.04c0,1.871,0.356,4.619,1.247,7.042c1.019,2.661,2.535,4.62,4.507,5.82c2.21,1.348,5.8,2.118,9.87,2.118
		c1.839,0.006,3.674-0.16,5.481-0.495c2.513-0.459,4.93-1.334,7.153-2.587c1.832-1.056,3.458-2.42,4.882-3.979
		c2.862-3.133,4.923-8.002,4.928-8.005c2.803,0.113,4.412-1.183,5.327-2.084c0.578-0.546,1.03-1.212,1.322-1.95l0.184-0.535
		L45.957,21.535z"/>
	<path d="M6.5,21h-3C3.224,21,3,20.776,3,20.5v-3C3,17.224,3.224,17,3.5,17h3C6.776,17,7,17.224,7,17.5v3C7,20.776,6.776,21,6.5,21z
		" style="fill:#fff"/>
	<path d="M12.5,21h-3C9.224,21,9,20.776,9,20.5v-3C9,17.224,9.224,17,9.5,17h3c0.276,0,0.5,0.224,0.5,0.5v3
		C13,20.776,12.776,21,12.5,21z" style="fill:#fff"/>
	<path d="M18.5,21h-3c-0.276,0-0.5-0.224-0.5-0.5v-3c0-0.276,0.224-0.5,0.5-0.5h3c0.276,0,0.5,0.224,0.5,0.5v3
		C19,20.776,18.776,21,18.5,21z" style="fill:#fff" />
	<path d="M24.5,21h-3c-0.276,0-0.5-0.224-0.5-0.5v-3c0-0.276,0.224-0.5,0.5-0.5h3c0.276,0,0.5,0.224,0.5,0.5v3
		C25,20.776,24.776,21,24.5,21z" style="fill:#fff"/>
	<path d="M12.5,15h-3C9.224,15,9,14.776,9,14.5v-3C9,11.224,9.224,11,9.5,11h3c0.276,0,0.5,0.224,0.5,0.5v3
		C13,14.776,12.776,15,12.5,15z" style="fill:#fff"/>
	<path d="M18.5,15h-3c-0.276,0-0.5-0.224-0.5-0.5v-3c0-0.276,0.224-0.5,0.5-0.5h3c0.276,0,0.5,0.224,0.5,0.5v3
		C19,14.776,18.776,15,18.5,15z" style="fill:#fff"/>
	<path d="M24.5,15h-3c-0.276,0-0.5-0.224-0.5-0.5v-3c0-0.276,0.224-0.5,0.5-0.5h3c0.276,0,0.5,0.224,0.5,0.5v3
		C25,14.776,24.776,15,24.5,15z" style="fill:#fff"/>
	<path d="M24.5,9h-3C21.224,9,21,8.776,21,8.5v-3C21,5.224,21.224,5,21.5,5h3C24.776,5,25,5.224,25,5.5v3C25,8.776,24.776,9,24.5,9z
		" style="fill:#fff"/>
	<path d="M30.5,21h-3c-0.276,0-0.5-0.224-0.5-0.5v-3c0-0.276,0.224-0.5,0.5-0.5h3c0.276,0,0.5,0.224,0.5,0.5v3
		C31,20.776,30.776,21,30.5,21z" style="fill:#fff"/>
</g>
<g id="ios_x5F_filled">
</g>
<g id="fluent">
</g>
<g id="cloud">
</g>
<g id="color">
</g>
</svg>