<?xml version="1.0" encoding="utf-8"?>
<!-- Generator: Adobe Illustrator 24.1.1, SVG Export Plug-In . SVG Version: 6.00 Build 0)  -->
<svg version="1.1" id="Layer_1" xmlns="http://www.w3.org/2000/svg" xmlns:xlink="http://www.w3.org/1999/xlink" x="0px" y="0px"
	 viewBox="0 0 512 512" style="enable-background:new 0 0 512 512;" xml:space="preserve" fill="#FFFFFF">
<g>
	<path d="M260.1,50.8c-91.7-2.1-173,58.6-197,147.1c-82.7,54.4-83.7,173-5.2,233.4l0.1-0.2l-0.2,0.7c25.1,18.9,55.6,29,87,28.9
		h110.3l0.7,0.6h110.8c142.7,1.2,200-183.5,81.8-263.4c-10.2-37.6-31.1-71.3-60.2-97.1l-0.9,0.9l0.1-1.1
		C352.1,69.5,307,51.8,260.1,50.8L260.1,50.8z M252.4,139.3c26.5-0.9,53.8,7.8,74.3,24.5c25.8,21.5,40.4,53.5,39.8,87v11.1
		c75.3-1.5,75.3,112.3,0,110.8H255.7l-0.2,0.2v-0.8H144.7c-7.8,0-15.6-1.7-22.8-4.9c-35.3-15.9-43.7-62.3-16.3-89.7
		c27.4-27.3,73.7-18.9,89.7,16.3l64.3-64.3c-21.3-27.8-52.2-46.9-86.6-53.7l1.2-0.4c20.2-22.2,48.4-35.2,78.3-36.1L252.4,139.3z"/>
</g>
</svg>